STARTFONT 2.1
FONT -thai-dbthaitext-medium-r-normal--17-120-100-100-p-50-tis620-0
SIZE 12 100 100
FONTBOUNDINGBOX 22 19 -6 -7
STARTPROPERTIES 25
FOUNDRY "thai"
FAMILY_NAME "dbthaitext"
WEIGHT_NAME "medium"
SLANT "r"
SETWIDTH_NAME "normal"
ADD_STYLE_NAME ""
PIXEL_SIZE 17
POINT_SIZE 120
RESOLUTION_X 100
RESOLUTION_Y 100
SPACING "p"
AVERAGE_WIDTH 50
CHARSET_REGISTRY "tis620"
CHARSET_ENCODING "0"
FONT "-thai-dbthaitext-medium-r-normal--17-120-100-100-p-50-tis620-0"
COPYRIGHT "Typeface (c) The Monotype Corporation plc. Data (c) The Monotype Corporation plc/Type Solutions Inc. 1990-1992. All Rights Reserved"
RAW_PIXELSIZE 1000
RAW_POINTSIZE 723
RAW_ASCENT 736
RAW_DESCENT 415
RAW_AVERAGE_WIDTH 2994
FACE_NAME "DBThaiTexthickne5"
DEFAULT_CHAR 0
FONT_ASCENT 12
FONT_DESCENT 7
ENDPROPERTIES
CHARS 190
STARTCHAR space
ENCODING 32
SWIDTH 240 0
DWIDTH 4 0
BBX 0 0 0 0
BITMAP
ENDCHAR
STARTCHAR exclam
ENCODING 33
SWIDTH 180 0
DWIDTH 3 0
BBX 1 7 1 0
BITMAP
80
80
80
80
80
00
80
ENDCHAR
STARTCHAR quotedbl
ENCODING 34
SWIDTH 240 0
DWIDTH 4 0
BBX 3 2 0 5
BITMAP
a0
a0
ENDCHAR
STARTCHAR numbersign
ENCODING 35
SWIDTH 360 0
DWIDTH 6 0
BBX 5 7 0 0
BITMAP
28
28
f8
50
f8
50
50
ENDCHAR
STARTCHAR dollar
ENCODING 36
SWIDTH 360 0
DWIDTH 6 0
BBX 5 9 0 -1
BITMAP
20
70
68
60
30
28
a8
70
20
ENDCHAR
STARTCHAR percent
ENCODING 37
SWIDTH 540 0
DWIDTH 9 0
BBX 8 7 0 0
BITMAP
e4
a4
e8
08
17
25
27
ENDCHAR
STARTCHAR ampersand
ENCODING 38
SWIDTH 420 0
DWIDTH 7 0
BBX 5 7 1 0
BITMAP
70
50
50
60
98
90
f8
ENDCHAR
STARTCHAR apostrophe
ENCODING 39
SWIDTH 120 0
DWIDTH 2 0
BBX 1 2 0 5
BITMAP
80
80
ENDCHAR
STARTCHAR parenleft
ENCODING 40
SWIDTH 180 0
DWIDTH 3 0
BBX 2 9 1 -2
BITMAP
40
40
80
80
80
80
80
40
40
ENDCHAR
STARTCHAR parenright
ENCODING 41
SWIDTH 180 0
DWIDTH 3 0
BBX 3 9 0 -2
BITMAP
40
40
60
20
20
20
60
40
40
ENDCHAR
STARTCHAR asterisk
ENCODING 42
SWIDTH 240 0
DWIDTH 4 0
BBX 4 2 0 5
BITMAP
50
60
ENDCHAR
STARTCHAR plus
ENCODING 43
SWIDTH 360 0
DWIDTH 6 0
BBX 5 5 0 0
BITMAP
20
20
f8
20
20
ENDCHAR
STARTCHAR comma
ENCODING 44
SWIDTH 180 0
DWIDTH 3 0
BBX 2 2 1 -1
BITMAP
80
40
ENDCHAR
STARTCHAR minus
ENCODING 45
SWIDTH 180 0
DWIDTH 3 0
BBX 2 1 1 2
BITMAP
c0
ENDCHAR
STARTCHAR period
ENCODING 46
SWIDTH 180 0
DWIDTH 3 0
BBX 1 1 1 0
BITMAP
80
ENDCHAR
STARTCHAR slash
ENCODING 47
SWIDTH 180 0
DWIDTH 3 0
BBX 3 7 0 0
BITMAP
20
20
20
40
40
40
80
ENDCHAR
STARTCHAR 0
ENCODING 48
SWIDTH 300 0
DWIDTH 5 0
BBX 4 6 0 0
BITMAP
60
90
90
90
90
60
ENDCHAR
STARTCHAR 1
ENCODING 49
SWIDTH 300 0
DWIDTH 5 0
BBX 2 6 1 0
BITMAP
40
c0
40
40
40
40
ENDCHAR
STARTCHAR 2
ENCODING 50
SWIDTH 300 0
DWIDTH 5 0
BBX 4 6 0 0
BITMAP
60
90
10
60
80
f0
ENDCHAR
STARTCHAR 3
ENCODING 51
SWIDTH 300 0
DWIDTH 5 0
BBX 4 6 0 0
BITMAP
60
90
10
10
90
70
ENDCHAR
STARTCHAR 4
ENCODING 52
SWIDTH 300 0
DWIDTH 5 0
BBX 4 6 0 0
BITMAP
10
30
50
90
f0
10
ENDCHAR
STARTCHAR 5
ENCODING 53
SWIDTH 300 0
DWIDTH 5 0
BBX 4 6 0 0
BITMAP
70
80
e0
10
10
e0
ENDCHAR
STARTCHAR 6
ENCODING 54
SWIDTH 300 0
DWIDTH 5 0
BBX 4 6 0 0
BITMAP
60
90
e0
90
90
60
ENDCHAR
STARTCHAR 7
ENCODING 55
SWIDTH 300 0
DWIDTH 5 0
BBX 4 6 0 0
BITMAP
f0
20
20
20
40
40
ENDCHAR
STARTCHAR 8
ENCODING 56
SWIDTH 300 0
DWIDTH 5 0
BBX 4 6 0 0
BITMAP
60
90
60
90
90
f0
ENDCHAR
STARTCHAR 9
ENCODING 57
SWIDTH 300 0
DWIDTH 5 0
BBX 4 6 0 0
BITMAP
60
90
90
70
10
e0
ENDCHAR
STARTCHAR colon
ENCODING 58
SWIDTH 180 0
DWIDTH 3 0
BBX 1 5 1 0
BITMAP
80
00
00
80
80
ENDCHAR
STARTCHAR semicolon
ENCODING 59
SWIDTH 180 0
DWIDTH 3 0
BBX 2 6 0 -1
BITMAP
c0
00
00
00
c0
40
ENDCHAR
STARTCHAR less
ENCODING 60
SWIDTH 360 0
DWIDTH 6 0
BBX 5 5 0 0
BITMAP
08
30
c0
70
08
ENDCHAR
STARTCHAR equal
ENCODING 61
SWIDTH 360 0
DWIDTH 6 0
BBX 5 3 0 1
BITMAP
f8
00
f8
ENDCHAR
STARTCHAR greater
ENCODING 62
SWIDTH 360 0
DWIDTH 6 0
BBX 5 5 0 0
BITMAP
80
60
18
70
80
ENDCHAR
STARTCHAR question
ENCODING 63
SWIDTH 360 0
DWIDTH 6 0
BBX 4 7 1 0
BITMAP
f0
90
10
60
40
00
40
ENDCHAR
STARTCHAR at
ENCODING 64
SWIDTH 600 0
DWIDTH 10 0
BBX 9 9 0 -2
BITMAP
1f00
6080
4e80
9280
9280
9f80
4000
3200
1e00
ENDCHAR
STARTCHAR A
ENCODING 65
SWIDTH 420 0
DWIDTH 7 0
BBX 6 7 0 0
BITMAP
30
30
28
48
78
c8
84
ENDCHAR
STARTCHAR B
ENCODING 66
SWIDTH 420 0
DWIDTH 7 0
BBX 5 7 1 0
BITMAP
f0
88
88
f0
88
88
f0
ENDCHAR
STARTCHAR C
ENCODING 67
SWIDTH 420 0
DWIDTH 7 0
BBX 7 7 0 0
BITMAP
7c
c4
80
80
c2
44
38
ENDCHAR
STARTCHAR D
ENCODING 68
SWIDTH 420 0
DWIDTH 7 0
BBX 6 7 1 0
BITMAP
f0
88
84
84
84
88
f0
ENDCHAR
STARTCHAR E
ENCODING 69
SWIDTH 420 0
DWIDTH 7 0
BBX 5 7 1 0
BITMAP
f8
80
80
f8
80
80
f8
ENDCHAR
STARTCHAR F
ENCODING 70
SWIDTH 360 0
DWIDTH 6 0
BBX 5 7 1 0
BITMAP
f8
80
80
f0
80
80
80
ENDCHAR
STARTCHAR G
ENCODING 71
SWIDTH 480 0
DWIDTH 8 0
BBX 7 7 0 0
BITMAP
3c
c2
80
8e
c2
46
3a
ENDCHAR
STARTCHAR H
ENCODING 72
SWIDTH 420 0
DWIDTH 7 0
BBX 5 7 1 0
BITMAP
88
88
88
f8
88
88
88
ENDCHAR
STARTCHAR I
ENCODING 73
SWIDTH 180 0
DWIDTH 3 0
BBX 1 7 1 0
BITMAP
80
80
80
80
80
80
80
ENDCHAR
STARTCHAR J
ENCODING 74
SWIDTH 300 0
DWIDTH 5 0
BBX 4 7 0 0
BITMAP
10
10
10
10
10
90
e0
ENDCHAR
STARTCHAR K
ENCODING 75
SWIDTH 420 0
DWIDTH 7 0
BBX 6 7 1 0
BITMAP
88
90
a0
e0
90
90
88
ENDCHAR
STARTCHAR L
ENCODING 76
SWIDTH 360 0
DWIDTH 6 0
BBX 4 7 1 0
BITMAP
80
80
80
80
80
80
f0
ENDCHAR
STARTCHAR M
ENCODING 77
SWIDTH 480 0
DWIDTH 8 0
BBX 7 7 1 0
BITMAP
86
c6
ca
aa
aa
b2
92
ENDCHAR
STARTCHAR N
ENCODING 78
SWIDTH 420 0
DWIDTH 7 0
BBX 5 7 1 0
BITMAP
88
c8
a8
a8
98
98
88
ENDCHAR
STARTCHAR O
ENCODING 79
SWIDTH 480 0
DWIDTH 8 0
BBX 7 7 0 0
BITMAP
3c
c2
82
82
82
42
3c
ENDCHAR
STARTCHAR P
ENCODING 80
SWIDTH 420 0
DWIDTH 7 0
BBX 5 7 1 0
BITMAP
f8
88
88
f0
80
80
80
ENDCHAR
STARTCHAR Q
ENCODING 81
SWIDTH 480 0
DWIDTH 8 0
BBX 7 7 0 0
BITMAP
3c
c2
82
82
82
4a
3e
ENDCHAR
STARTCHAR R
ENCODING 82
SWIDTH 420 0
DWIDTH 7 0
BBX 6 7 1 0
BITMAP
f8
88
88
f0
88
88
8c
ENDCHAR
STARTCHAR S
ENCODING 83
SWIDTH 420 0
DWIDTH 7 0
BBX 6 7 0 0
BITMAP
78
44
40
38
04
44
78
ENDCHAR
STARTCHAR T
ENCODING 84
SWIDTH 360 0
DWIDTH 6 0
BBX 6 7 0 0
BITMAP
fc
10
10
10
10
10
10
ENDCHAR
STARTCHAR U
ENCODING 85
SWIDTH 420 0
DWIDTH 7 0
BBX 5 7 1 0
BITMAP
88
88
88
88
88
88
70
ENDCHAR
STARTCHAR V
ENCODING 86
SWIDTH 420 0
DWIDTH 7 0
BBX 6 7 0 0
BITMAP
84
4c
48
48
30
30
30
ENDCHAR
STARTCHAR W
ENCODING 87
SWIDTH 540 0
DWIDTH 9 0
BBX 9 7 0 0
BITMAP
8880
9480
5500
5500
5500
6300
2200
ENDCHAR
STARTCHAR X
ENCODING 88
SWIDTH 420 0
DWIDTH 7 0
BBX 6 7 0 0
BITMAP
4c
48
30
30
30
48
84
ENDCHAR
STARTCHAR Y
ENCODING 89
SWIDTH 420 0
DWIDTH 7 0
BBX 7 7 0 0
BITMAP
c4
44
28
10
10
10
10
ENDCHAR
STARTCHAR Z
ENCODING 90
SWIDTH 360 0
DWIDTH 6 0
BBX 6 7 0 0
BITMAP
fc
08
10
20
60
40
fc
ENDCHAR
STARTCHAR bracketleft
ENCODING 91
SWIDTH 180 0
DWIDTH 3 0
BBX 1 9 1 -2
BITMAP
80
80
80
80
80
80
80
80
80
ENDCHAR
STARTCHAR backslash
ENCODING 92
SWIDTH 180 0
DWIDTH 3 0
BBX 3 7 0 0
BITMAP
80
80
40
40
40
20
20
ENDCHAR
STARTCHAR bracketright
ENCODING 93
SWIDTH 180 0
DWIDTH 3 0
BBX 2 9 0 -2
BITMAP
c0
40
40
40
40
40
40
40
c0
ENDCHAR
STARTCHAR asciicircum
ENCODING 94
SWIDTH 300 0
DWIDTH 5 0
BBX 4 4 0 3
BITMAP
60
60
90
90
ENDCHAR
STARTCHAR underscore
ENCODING 95
SWIDTH 360 0
DWIDTH 6 0
BBX 6 1 0 -2
BITMAP
fc
ENDCHAR
STARTCHAR grave
ENCODING 96
SWIDTH 180 0
DWIDTH 3 0
BBX 3 3 0 1
BITMAP
e0
e0
40
ENDCHAR
STARTCHAR a
ENCODING 97
SWIDTH 360 0
DWIDTH 6 0
BBX 5 5 0 0
BITMAP
78
08
78
88
78
ENDCHAR
STARTCHAR b
ENCODING 98
SWIDTH 360 0
DWIDTH 6 0
BBX 5 7 0 0
BITMAP
80
80
f0
c8
88
c8
70
ENDCHAR
STARTCHAR c
ENCODING 99
SWIDTH 300 0
DWIDTH 5 0
BBX 5 5 0 0
BITMAP
70
88
80
88
70
ENDCHAR
STARTCHAR d
ENCODING 100
SWIDTH 360 0
DWIDTH 6 0
BBX 5 7 0 0
BITMAP
08
08
78
88
88
88
78
ENDCHAR
STARTCHAR e
ENCODING 101
SWIDTH 360 0
DWIDTH 6 0
BBX 5 5 0 0
BITMAP
70
88
f8
88
70
ENDCHAR
STARTCHAR f
ENCODING 102
SWIDTH 180 0
DWIDTH 3 0
BBX 3 7 0 0
BITMAP
40
40
e0
40
40
40
40
ENDCHAR
STARTCHAR g
ENCODING 103
SWIDTH 360 0
DWIDTH 6 0
BBX 5 7 0 -2
BITMAP
78
88
88
88
78
08
70
ENDCHAR
STARTCHAR h
ENCODING 104
SWIDTH 360 0
DWIDTH 6 0
BBX 4 7 1 0
BITMAP
80
80
f0
90
90
90
90
ENDCHAR
STARTCHAR i
ENCODING 105
SWIDTH 120 0
DWIDTH 2 0
BBX 1 7 1 0
BITMAP
80
00
80
80
80
80
80
ENDCHAR
STARTCHAR j
ENCODING 106
SWIDTH 120 0
DWIDTH 2 0
BBX 2 9 0 -2
BITMAP
40
00
40
40
40
40
40
40
c0
ENDCHAR
STARTCHAR k
ENCODING 107
SWIDTH 300 0
DWIDTH 5 0
BBX 5 7 0 0
BITMAP
80
80
90
e0
e0
90
88
ENDCHAR
STARTCHAR l
ENCODING 108
SWIDTH 120 0
DWIDTH 2 0
BBX 1 7 1 0
BITMAP
80
80
80
80
80
80
80
ENDCHAR
STARTCHAR m
ENCODING 109
SWIDTH 480 0
DWIDTH 8 0
BBX 7 5 1 0
BITMAP
fe
92
92
92
92
ENDCHAR
STARTCHAR n
ENCODING 110
SWIDTH 360 0
DWIDTH 6 0
BBX 4 5 1 0
BITMAP
f0
90
90
90
90
ENDCHAR
STARTCHAR o
ENCODING 111
SWIDTH 360 0
DWIDTH 6 0
BBX 5 5 0 0
BITMAP
70
88
88
88
70
ENDCHAR
STARTCHAR p
ENCODING 112
SWIDTH 360 0
DWIDTH 6 0
BBX 5 7 0 -2
BITMAP
f0
88
88
c8
b0
80
80
ENDCHAR
STARTCHAR q
ENCODING 113
SWIDTH 360 0
DWIDTH 6 0
BBX 5 7 0 -2
BITMAP
78
88
88
88
78
08
08
ENDCHAR
STARTCHAR r
ENCODING 114
SWIDTH 180 0
DWIDTH 3 0
BBX 2 5 1 0
BITMAP
c0
80
80
80
80
ENDCHAR
STARTCHAR s
ENCODING 115
SWIDTH 300 0
DWIDTH 5 0
BBX 4 5 0 0
BITMAP
60
90
60
90
f0
ENDCHAR
STARTCHAR t
ENCODING 116
SWIDTH 180 0
DWIDTH 3 0
BBX 3 7 0 0
BITMAP
40
40
e0
40
40
40
60
ENDCHAR
STARTCHAR u
ENCODING 117
SWIDTH 360 0
DWIDTH 6 0
BBX 4 5 1 0
BITMAP
90
90
90
90
e0
ENDCHAR
STARTCHAR v
ENCODING 118
SWIDTH 300 0
DWIDTH 5 0
BBX 5 5 0 0
BITMAP
88
58
50
50
20
ENDCHAR
STARTCHAR w
ENCODING 119
SWIDTH 420 0
DWIDTH 7 0
BBX 7 5 0 0
BITMAP
92
aa
6c
6c
6c
ENDCHAR
STARTCHAR x
ENCODING 120
SWIDTH 300 0
DWIDTH 5 0
BBX 5 5 0 0
BITMAP
d8
70
20
50
98
ENDCHAR
STARTCHAR y
ENCODING 121
SWIDTH 300 0
DWIDTH 5 0
BBX 5 7 0 -2
BITMAP
88
58
50
70
20
20
40
ENDCHAR
STARTCHAR z
ENCODING 122
SWIDTH 300 0
DWIDTH 5 0
BBX 5 5 0 0
BITMAP
f0
20
40
40
f8
ENDCHAR
STARTCHAR braceleft
ENCODING 123
SWIDTH 180 0
DWIDTH 3 0
BBX 3 9 0 -2
BITMAP
40
40
40
40
80
40
40
40
60
ENDCHAR
STARTCHAR bar
ENCODING 124
SWIDTH 180 0
DWIDTH 3 0
BBX 1 9 1 -2
BITMAP
80
80
80
80
80
80
80
80
80
ENDCHAR
STARTCHAR braceright
ENCODING 125
SWIDTH 180 0
DWIDTH 3 0
BBX 3 9 0 -2
BITMAP
40
40
40
40
20
40
40
40
c0
ENDCHAR
STARTCHAR asciitilde
ENCODING 126
SWIDTH 360 0
DWIDTH 6 0
BBX 5 1 1 3
BITMAP
f8
ENDCHAR
STARTCHAR exclamdown
ENCODING 161
SWIDTH 360 0
DWIDTH 6 0
BBX 5 5 0 0
BITMAP
78
48
48
48
48
ENDCHAR
STARTCHAR cent
ENCODING 162
SWIDTH 360 0
DWIDTH 6 0
BBX 5 5 0 0
BITMAP
f8
68
28
28
38
ENDCHAR
STARTCHAR sterling
ENCODING 163
SWIDTH 420 0
DWIDTH 7 0
BBX 6 5 0 0
BITMAP
f4
f4
14
14
3c
ENDCHAR
STARTCHAR currency
ENCODING 164
SWIDTH 360 0
DWIDTH 6 0
BBX 5 6 0 0
BITMAP
70
88
f8
e8
48
48
ENDCHAR
STARTCHAR yen
ENCODING 165
SWIDTH 360 0
DWIDTH 6 0
BBX 5 5 0 0
BITMAP
f8
d8
68
48
48
ENDCHAR
STARTCHAR brokenbar
ENCODING 166
SWIDTH 480 0
DWIDTH 8 0
BBX 7 5 0 0
BITMAP
f2
f2
12
3e
32
ENDCHAR
STARTCHAR section
ENCODING 167
SWIDTH 300 0
DWIDTH 5 0
BBX 4 5 0 0
BITMAP
30
90
50
50
30
ENDCHAR
STARTCHAR diaeresis
ENCODING 168
SWIDTH 360 0
DWIDTH 6 0
BBX 5 5 0 0
BITMAP
78
28
38
08
08
ENDCHAR
STARTCHAR copyright
ENCODING 169
SWIDTH 420 0
DWIDTH 7 0
BBX 6 5 0 0
BITMAP
78
68
68
3c
2c
ENDCHAR
STARTCHAR ordfeminine
ENCODING 170
SWIDTH 360 0
DWIDTH 6 0
BBX 6 6 0 0
BITMAP
6c
b0
68
28
28
38
ENDCHAR
STARTCHAR guillemotleft
ENCODING 171
SWIDTH 420 0
DWIDTH 7 0
BBX 6 6 0 0
BITMAP
74
d8
f4
14
14
3c
ENDCHAR
STARTCHAR notsign
ENCODING 172
SWIDTH 480 0
DWIDTH 8 0
BBX 7 5 0 0
BITMAP
7a
4a
4a
7e
7a
ENDCHAR
STARTCHAR hyphen
ENCODING 173
SWIDTH 480 0
DWIDTH 8 0
BBX 7 8 0 -3
BITMAP
7a
4a
4a
6a
7e
00
1e
0c
ENDCHAR
STARTCHAR registered
ENCODING 174
SWIDTH 420 0
DWIDTH 7 0
BBX 6 8 0 -3
BITMAP
7c
64
44
c4
c4
74
5c
64
ENDCHAR
STARTCHAR macron
ENCODING 175
SWIDTH 420 0
DWIDTH 7 0
BBX 6 8 0 -3
BITMAP
7c
64
44
c4
c4
14
6c
74
ENDCHAR
STARTCHAR degree
ENCODING 176
SWIDTH 300 0
DWIDTH 5 0
BBX 5 8 0 -3
BITMAP
70
08
78
38
08
00
78
f8
ENDCHAR
STARTCHAR plusminus
ENCODING 177
SWIDTH 480 0
DWIDTH 8 0
BBX 7 5 0 0
BITMAP
fe
fa
12
12
12
ENDCHAR
STARTCHAR twosuperior
ENCODING 178
SWIDTH 480 0
DWIDTH 8 0
BBX 8 5 0 0
BITMAP
f9
b9
79
6f
69
ENDCHAR
STARTCHAR threesuperior
ENCODING 179
SWIDTH 480 0
DWIDTH 8 0
BBX 8 5 0 0
BITMAP
7a
4a
4a
6f
6b
ENDCHAR
STARTCHAR acute
ENCODING 180
SWIDTH 360 0
DWIDTH 6 0
BBX 5 6 0 0
BITMAP
30
c8
b8
78
68
68
ENDCHAR
STARTCHAR mu
ENCODING 181
SWIDTH 360 0
DWIDTH 6 0
BBX 5 5 0 0
BITMAP
f8
b8
78
68
68
ENDCHAR
STARTCHAR paragraph
ENCODING 182
SWIDTH 360 0
DWIDTH 6 0
BBX 5 5 0 0
BITMAP
78
48
48
68
68
ENDCHAR
STARTCHAR periodcentered
ENCODING 183
SWIDTH 360 0
DWIDTH 6 0
BBX 6 5 0 0
BITMAP
fc
34
24
24
24
ENDCHAR
STARTCHAR cedilla
ENCODING 184
SWIDTH 300 0
DWIDTH 5 0
BBX 5 5 0 0
BITMAP
e0
58
48
48
78
ENDCHAR
STARTCHAR onesuperior
ENCODING 185
SWIDTH 420 0
DWIDTH 7 0
BBX 7 5 0 0
BITMAP
e8
28
28
3e
2e
ENDCHAR
STARTCHAR masculine
ENCODING 186
SWIDTH 420 0
DWIDTH 7 0
BBX 6 5 0 0
BITMAP
e4
24
24
24
7c
ENDCHAR
STARTCHAR guillemotright
ENCODING 187
SWIDTH 420 0
DWIDTH 7 0
BBX 6 8 0 0
BITMAP
04
04
64
e4
24
24
24
7c
ENDCHAR
STARTCHAR onequarter
ENCODING 188
SWIDTH 360 0
DWIDTH 6 0
BBX 5 5 1 0
BITMAP
c8
88
a8
d8
88
ENDCHAR
STARTCHAR onehalf
ENCODING 189
SWIDTH 360 0
DWIDTH 6 0
BBX 5 8 1 0
BITMAP
08
08
88
c8
88
a8
d8
88
ENDCHAR
STARTCHAR threequarters
ENCODING 190
SWIDTH 420 0
DWIDTH 7 0
BBX 7 5 0 0
BITMAP
ea
3a
36
26
22
ENDCHAR
STARTCHAR questiondown
ENCODING 191
SWIDTH 420 0
DWIDTH 7 0
BBX 7 8 0 0
BITMAP
02
02
6a
ea
3a
36
26
22
ENDCHAR
STARTCHAR Agrave
ENCODING 192
SWIDTH 420 0
DWIDTH 7 0
BBX 6 5 0 0
BITMAP
7c
64
44
c4
c4
ENDCHAR
STARTCHAR Aacute
ENCODING 193
SWIDTH 360 0
DWIDTH 6 0
BBX 6 5 0 0
BITMAP
64
24
24
7c
64
ENDCHAR
STARTCHAR Acircumflex
ENCODING 194
SWIDTH 360 0
DWIDTH 6 0
BBX 4 5 1 0
BITMAP
d0
90
d0
90
f0
ENDCHAR
STARTCHAR Atilde
ENCODING 195
SWIDTH 300 0
DWIDTH 5 0
BBX 4 5 0 0
BITMAP
e0
10
10
30
30
ENDCHAR
STARTCHAR Adiaeresis
ENCODING 196
SWIDTH 360 0
DWIDTH 6 0
BBX 5 8 0 -3
BITMAP
78
48
48
68
68
08
08
08
ENDCHAR
STARTCHAR Aring
ENCODING 197
SWIDTH 360 0
DWIDTH 6 0
BBX 5 5 0 0
BITMAP
78
68
58
68
68
ENDCHAR
STARTCHAR AE
ENCODING 198
SWIDTH 420 0
DWIDTH 7 0
BBX 6 8 0 -3
BITMAP
7c
64
44
c4
c4
04
04
04
ENDCHAR
STARTCHAR Ccedilla
ENCODING 199
SWIDTH 360 0
DWIDTH 6 0
BBX 5 5 0 0
BITMAP
f8
08
08
18
18
ENDCHAR
STARTCHAR Egrave
ENCODING 200
SWIDTH 360 0
DWIDTH 6 0
BBX 6 6 0 0
BITMAP
7c
88
f8
68
48
48
ENDCHAR
STARTCHAR Eacute
ENCODING 201
SWIDTH 420 0
DWIDTH 7 0
BBX 7 5 0 0
BITMAP
e4
3e
3c
24
7c
ENDCHAR
STARTCHAR Ecircumflex
ENCODING 202
SWIDTH 360 0
DWIDTH 6 0
BBX 6 6 0 0
BITMAP
08
7c
68
58
68
68
ENDCHAR
STARTCHAR Ediaeresis
ENCODING 203
SWIDTH 420 0
DWIDTH 7 0
BBX 6 5 0 0
BITMAP
ec
3c
34
24
24
ENDCHAR
STARTCHAR Igrave
ENCODING 204
SWIDTH 420 0
DWIDTH 7 0
BBX 8 7 0 0
BITMAP
04
66
ec
3c
3c
24
24
ENDCHAR
STARTCHAR Iacute
ENCODING 205
SWIDTH 360 0
DWIDTH 6 0
BBX 4 5 1 0
BITMAP
f0
d0
d0
90
f0
ENDCHAR
STARTCHAR Icircumflex
ENCODING 206
SWIDTH 360 0
DWIDTH 6 0
BBX 6 6 1 0
BITMAP
10
fc
50
d0
d0
f0
ENDCHAR
STARTCHAR Idiaeresis
ENCODING 207
SWIDTH 360 0
DWIDTH 6 0
BBX 4 5 1 0
BITMAP
d0
d0
f0
10
30
ENDCHAR
STARTCHAR ETH
ENCODING 208
SWIDTH 300 0
DWIDTH 5 0
BBX 4 5 0 0
BITMAP
f0
00
00
d0
e0
ENDCHAR
STARTCHAR Ntilde
ENCODING 209
SWIDTH 0 0
DWIDTH 0 0
BBX 5 2 -4 7
BITMAP
c8
f0
ENDCHAR
STARTCHAR Ograve
ENCODING 210
SWIDTH 300 0
DWIDTH 5 0
BBX 4 5 0 0
BITMAP
f0
10
10
10
10
ENDCHAR
STARTCHAR Oacute
ENCODING 211
SWIDTH 300 0
DWIDTH 5 0
BBX 6 9 -2 0
BITMAP
80
c0
00
00
3c
04
04
04
04
ENDCHAR
STARTCHAR Ocircumflex
ENCODING 212
SWIDTH 0 0
DWIDTH 0 0
BBX 5 2 -6 7
BITMAP
70
f8
ENDCHAR
STARTCHAR Otilde
ENCODING 213
SWIDTH 60 0
DWIDTH 1 0
BBX 5 3 -5 7
BITMAP
08
78
f8
ENDCHAR
STARTCHAR Odiaeresis
ENCODING 214
SWIDTH 0 0
DWIDTH 0 0
BBX 5 3 -5 7
BITMAP
18
78
f8
ENDCHAR
STARTCHAR multiply
ENCODING 215
SWIDTH 60 0
DWIDTH 1 0
BBX 5 3 -5 7
BITMAP
28
78
f8
ENDCHAR
STARTCHAR Ooblique
ENCODING 216
SWIDTH 0 0
DWIDTH 0 0
BBX 2 3 -3 -4
BITMAP
c0
c0
40
ENDCHAR
STARTCHAR Ugrave
ENCODING 217
SWIDTH 0 0
DWIDTH 0 0
BBX 3 3 -4 -4
BITMAP
a0
e0
60
ENDCHAR
STARTCHAR Uacute
ENCODING 218
SWIDTH 0 0
DWIDTH 0 0
BBX 1 1 -2 -2
BITMAP
80
ENDCHAR
STARTCHAR Ucircumflex
ENCODING 219
SWIDTH 0 0
DWIDTH 0 0
BBX 1 1 -2 -4
BITMAP
80
ENDCHAR
STARTCHAR Udiaeresis
ENCODING 220
SWIDTH 0 0
DWIDTH 0 0
BBX 1 1 0 0
BITMAP
00
ENDCHAR
STARTCHAR Yacute
ENCODING 221
SWIDTH 0 0
DWIDTH 0 0
BBX 1 1 0 0
BITMAP
00
ENDCHAR
STARTCHAR THORN
ENCODING 222
SWIDTH 0 0
DWIDTH 0 0
BBX 1 1 0 0
BITMAP
00
ENDCHAR
STARTCHAR ssharp
ENCODING 223
SWIDTH 0 0
DWIDTH 0 0
BBX 1 1 0 0
BITMAP
00
ENDCHAR
STARTCHAR agrave
ENCODING 224
SWIDTH 180 0
DWIDTH 3 0
BBX 2 5 1 0
BITMAP
80
80
80
c0
c0
ENDCHAR
STARTCHAR aacute
ENCODING 225
SWIDTH 360 0
DWIDTH 6 0
BBX 5 5 1 0
BITMAP
a0
a0
a0
f0
f8
ENDCHAR
STARTCHAR acircumflex
ENCODING 226
SWIDTH 240 0
DWIDTH 4 0
BBX 4 10 0 0
BITMAP
e0
40
40
40
40
40
40
40
60
70
ENDCHAR
STARTCHAR atilde
ENCODING 227
SWIDTH 240 0
DWIDTH 4 0
BBX 5 10 -1 0
BITMAP
60
60
20
20
20
20
20
20
30
38
ENDCHAR
STARTCHAR adiaeresis
ENCODING 228
SWIDTH 240 0
DWIDTH 4 0
BBX 4 10 0 0
BITMAP
e0
e0
a0
20
20
20
20
20
30
30
ENDCHAR
STARTCHAR aring
ENCODING 229
SWIDTH 300 0
DWIDTH 5 0
BBX 4 8 0 -3
BITMAP
f0
10
10
10
10
10
10
10
ENDCHAR
STARTCHAR ae
ENCODING 230
SWIDTH 420 0
DWIDTH 7 0
BBX 4 7 2 -2
BITMAP
f0
d0
50
10
10
10
30
ENDCHAR
STARTCHAR ccedilla
ENCODING 231
SWIDTH 0 0
DWIDTH 0 0
BBX 4 3 -5 7
BITMAP
70
80
f0
ENDCHAR
STARTCHAR egrave
ENCODING 232
SWIDTH 0 0
DWIDTH 0 0
BBX 1 2 -2 10
BITMAP
80
80
ENDCHAR
STARTCHAR eacute
ENCODING 233
SWIDTH 0 0
DWIDTH 0 0
BBX 4 2 -3 10
BITMAP
d0
60
ENDCHAR
STARTCHAR ecircumflex
ENCODING 234
SWIDTH 0 0
DWIDTH 0 0
BBX 4 2 -4 10
BITMAP
f0
f0
ENDCHAR
STARTCHAR ediaeresis
ENCODING 235
SWIDTH 0 0
DWIDTH 0 0
BBX 3 2 -3 10
BITMAP
e0
40
ENDCHAR
STARTCHAR igrave
ENCODING 236
SWIDTH 0 0
DWIDTH 0 0
BBX 3 3 -2 9
BITMAP
e0
c0
80
ENDCHAR
STARTCHAR iacute
ENCODING 237
SWIDTH 0 0
DWIDTH 0 0
BBX 2 2 -3 6
BITMAP
c0
40
ENDCHAR
STARTCHAR icircumflex
ENCODING 238
SWIDTH 0 0
DWIDTH 0 0
BBX 2 2 -3 8
BITMAP
c0
c0
ENDCHAR
STARTCHAR idiaeresis
ENCODING 239
SWIDTH 360 0
DWIDTH 6 0
BBX 6 5 0 0
BITMAP
78
b4
f4
b4
78
ENDCHAR
STARTCHAR eth
ENCODING 240
SWIDTH 360 0
DWIDTH 6 0
BBX 5 4 0 0
BITMAP
70
88
88
70
ENDCHAR
STARTCHAR ntilde
ENCODING 241
SWIDTH 360 0
DWIDTH 6 0
BBX 6 4 0 0
BITMAP
78
b4
b4
68
ENDCHAR
STARTCHAR ograve
ENCODING 242
SWIDTH 420 0
DWIDTH 7 0
BBX 7 6 0 0
BITMAP
c0
40
7e
6a
72
7e
ENDCHAR
STARTCHAR oacute
ENCODING 243
SWIDTH 420 0
DWIDTH 7 0
BBX 5 4 1 0
BITMAP
f8
a8
e8
e8
ENDCHAR
STARTCHAR ocircumflex
ENCODING 244
SWIDTH 420 0
DWIDTH 7 0
BBX 7 6 0 0
BITMAP
02
06
78
90
90
7c
ENDCHAR
STARTCHAR otilde
ENCODING 245
SWIDTH 420 0
DWIDTH 7 0
BBX 7 6 0 0
BITMAP
12
1e
78
90
90
7c
ENDCHAR
STARTCHAR odiaeresis
ENCODING 246
SWIDTH 300 0
DWIDTH 5 0
BBX 5 6 0 0
BITMAP
80
40
78
08
68
70
ENDCHAR
STARTCHAR division
ENCODING 247
SWIDTH 420 0
DWIDTH 7 0
BBX 6 6 1 0
BITMAP
04
04
fc
ac
cc
d8
ENDCHAR
STARTCHAR oslash
ENCODING 248
SWIDTH 420 0
DWIDTH 7 0
BBX 6 6 1 0
BITMAP
04
04
fc
98
dc
b8
ENDCHAR
STARTCHAR ugrave
ENCODING 249
SWIDTH 360 0
DWIDTH 6 0
BBX 5 6 1 0
BITMAP
08
08
f8
90
f0
c8
ENDCHAR
STARTCHAR uacute
ENCODING 250
SWIDTH 1020 0
DWIDTH 17 0
BBX 16 1 0 2
BITMAP
ffff
ENDCHAR
STARTCHAR ucircumflex
ENCODING 251
SWIDTH 480 0
DWIDTH 8 0
BBX 8 1 0 2
BITMAP
ff
ENDCHAR
STARTCHAR udiaeresis
ENCODING 252
SWIDTH 0 0
DWIDTH 0 0
BBX 2 4 -3 -7
BITMAP
40
c0
40
40
ENDCHAR
STARTCHAR yacute
ENCODING 253
SWIDTH 0 0
DWIDTH 0 0
BBX 3 4 -4 -7
BITMAP
a0
e0
60
60
ENDCHAR
STARTCHAR thorn
ENCODING 254
SWIDTH 480 0
DWIDTH 8 0
BBX 8 7 0 0
BITMAP
3c
42
9b
99
99
d7
3c
ENDCHAR
STARTCHAR ydiaeresis
ENCODING 255
SWIDTH 0 0
DWIDTH 0 0
BBX 1 1 0 0
BITMAP
00
ENDCHAR
ENDFONT
